HIERARCHY
ROOT Hips
{
	OFFSET 0.000000 0.000000 0.000000
	CHANNELS 6 Xposition Yposition Zposition Zrotation Yrotation Xrotation 
	JOINT LeftUpLeg_virtual
	{
		OFFSET 0.000000 0.000000 0.000000
		CHANNELS 3 Zrotation Yrotation Xrotation
		JOINT LeftUpLeg
		{
			OFFSET 8.479694 -4.795517 -0.379053
			CHANNELS 3 Zrotation Yrotation Xrotation
			JOINT LeftLeg
			{
				OFFSET 0.485052 -32.551468 0.112863
				CHANNELS 3 Zrotation Yrotation Xrotation
				JOINT LeftFoot
				{
					OFFSET 0.438033 -32.635670 -3.012641
					CHANNELS 3 Zrotation Yrotation Xrotation
					JOINT LeftToeBase
					{
						OFFSET 0.970169 -13.225353 11.864223
						CHANNELS 3 Zrotation Yrotation Xrotation
						End Site
						{
							OFFSET 0.000000 0.000000 0.000000
						}
					}
				}
			}
		}
	}
	JOINT RightUpLeg_virtual
	{
		OFFSET 0.000000 0.000000 0.000000
		CHANNELS 3 Zrotation Yrotation Xrotation
		JOINT RightUpLeg
		{
			OFFSET -8.479694 -4.795517 -0.379053
			CHANNELS 3 Zrotation Yrotation Xrotation
			JOINT RightLeg
			{
				OFFSET -0.484100 -32.551483 0.112903
				CHANNELS 3 Zrotation Yrotation Xrotation
				JOINT RightFoot
				{
					OFFSET -0.438985 -32.635651 -3.012681
					CHANNELS 3 Zrotation Yrotation Xrotation
					JOINT RightToeBase
					{
						OFFSET -0.970169 -13.225354 11.864223
						CHANNELS 3 Zrotation Yrotation Xrotation
						End Site
						{
							OFFSET 0.000000 0.000000 0.000000
						}
					}
				}
			}
		}
	}
	JOINT Spine_virtual
	{
		OFFSET 0.000000 0.000000 0.000000
		CHANNELS 3 Zrotation Yrotation Xrotation
		JOINT Spine
		{
			OFFSET 0.000000 7.722015 1.166203
			CHANNELS 3 Zrotation Yrotation Xrotation
			JOINT Spine1
			{
				OFFSET 0.000000 12.024086 0.248766
				CHANNELS 3 Zrotation Yrotation Xrotation
				JOINT Spine2
				{
					OFFSET -0.000000 11.503036 -0.491240
					CHANNELS 3 Zrotation Yrotation Xrotation
					JOINT Neck_virtual
					{
						OFFSET 0.000000 0.000000 0.000000
						CHANNELS 3 Zrotation Yrotation Xrotation
						JOINT Neck
						{
							OFFSET 0.000000 18.430687 -3.123054
							CHANNELS 3 Zrotation Yrotation Xrotation
							JOINT Head
							{
								OFFSET -0.000000 9.051071 1.034021
								CHANNELS 3 Zrotation Yrotation Xrotation
								End Site
								{
									OFFSET 0.000000 0.000000 0.000000
								}
							}
						}
					}
					JOINT LeftShoulder_virtual
					{
						OFFSET 0.000000 0.000000 0.000000
						CHANNELS 3 Zrotation Yrotation Xrotation
						JOINT LeftShoulder
						{
							OFFSET 6.197824 13.665230 -4.064723
							CHANNELS 3 Zrotation Yrotation Xrotation
							JOINT LeftArm
							{
								OFFSET 7.778132 -0.187073 -1.709282
								CHANNELS 3 Zrotation Yrotation Xrotation
								JOINT LeftForeArm
								{
									OFFSET 21.954697 0.000000 -2.041093
									CHANNELS 3 Zrotation Yrotation Xrotation
									JOINT LeftHand
									{
										OFFSET 22.992908 0.000000 -0.870901
										CHANNELS 3 Zrotation Yrotation Xrotation
										End Site
										{
											OFFSET 0.000000 0.000000 0.000000
										}
									}
								}
							}
						}
					}
					JOINT RightShoulder_virtual
					{
						OFFSET 0.000000 0.000000 0.000000
						CHANNELS 3 Zrotation Yrotation Xrotation
						JOINT RightShoulder
						{
							OFFSET -6.197824 13.665230 -4.064723
							CHANNELS 3 Zrotation Yrotation Xrotation
							JOINT RightArm
							{
								OFFSET -7.778132 -0.187073 -1.709282
								CHANNELS 3 Zrotation Yrotation Xrotation
								JOINT RightForeArm
								{
									OFFSET -21.954697 0.000000 -2.041093
									CHANNELS 3 Zrotation Yrotation Xrotation
									JOINT RightHand
									{
										OFFSET -22.992908 0.000000 -0.870901
										CHANNELS 3 Zrotation Yrotation Xrotation
										End Site
										{
											OFFSET 0.000000 0.000000 0.000000
										}
									}
								}
							}
						}
					}
				}
			}
		}
	}
}
MOTION
Frames: 14
Frame Time: 0.033333
-3.721916 60.348427 6.229537 179.622979 4.624490 -179.855014 0.285851 -2.713302 -2.281337 6.729590 10.332024 -67.502097 5.538066 0.486945 95.168270 -0.053888 -12.569586 -22.195103 0.000000 0.000000 0.000000 0.813256 -0.942706 -0.777248 6.045167 -14.472420 -72.001908 3.550281 2.604817 86.823732 1.795902 4.849395 -17.104556 0.000000 0.000000 0.000000 -2.379392 2.099132 -3.791541 -1.420467 -1.574349 -0.867256 -0.059356 -2.068538 11.832639 0.111204 -0.031707 0.091738 -0.129723 -1.563714 15.554986 0.169597 -0.220395 7.114944 0.000000 0.000000 0.000000 1.811529 -1.325810 10.856388 -5.537683 -6.893086 3.052436 -61.247925 -27.658662 35.132608 179.923357 -87.114589 -153.405980 0.000000 0.000000 0.000000 -2.075487 0.470740 10.152665 4.720830 5.991941 -5.292224 23.971228 12.397320 -10.494172 -178.863216 74.569451 -179.371996 0.000000 0.000000 0.000000 
-3.798430 60.314926 6.119290 179.679355 5.297169 -179.873660 0.115217 -2.267869 -2.284026 6.926638 10.680509 -67.471238 5.390303 0.510526 95.473313 -0.007781 -12.680850 -22.337005 0.000000 0.000000 0.000000 0.618698 -0.539937 -0.734699 6.347156 -14.506965 -71.934787 3.656999 2.676282 86.839578 1.750612 4.895836 -17.337030 0.000000 0.000000 0.000000 -2.548656 2.416288 -3.777971 -1.516622 -1.721600 -0.831672 -0.067697 -2.109947 11.740098 0.026588 -0.013586 0.091769 -0.085322 -1.550592 15.553819 0.092516 -0.254798 7.226170 0.000000 0.000000 0.000000 1.815292 -1.264281 10.843833 -5.359498 -6.661799 2.945465 -61.667531 -27.102426 34.912095 177.599754 -87.441584 -151.014444 0.000000 0.000000 0.000000 -2.019817 0.523619 10.152988 4.895153 5.800048 -5.353653 24.176805 12.775175 -9.171544 -179.278928 74.382454 -179.725828 0.000000 0.000000 0.000000 
-3.950116 60.286304 6.003224 179.702564 5.981127 -179.918972 -0.109187 -1.583700 -2.332946 7.102715 11.027040 -67.459975 5.189693 0.541603 95.760919 0.090972 -12.848639 -22.497753 0.000000 0.000000 0.000000 0.400994 0.126579 -0.687969 6.663860 -14.544973 -71.850421 3.767861 2.785765 86.881338 1.712867 4.968491 -17.573100 0.000000 0.000000 0.000000 -2.708739 2.919520 -3.768677 -1.541841 -1.847564 -0.774374 -0.045278 -2.156397 11.646045 0.016261 0.014662 -0.007211 -0.175119 -1.535874 15.600598 -0.015913 -0.219086 7.212479 0.000000 0.000000 0.000000 1.713782 -1.337825 10.933555 -5.099841 -6.463672 2.879422 -61.761316 -26.730038 34.595885 177.783417 -87.737215 -151.154368 0.000000 0.000000 0.000000 -2.121447 0.537658 10.172815 5.122671 5.607381 -5.291101 24.173139 13.778535 -8.185939 -179.646925 74.032680 179.896364 0.000000 0.000000 0.000000 
-4.166653 60.256039 5.892828 179.769131 6.733866 179.986399 -0.378882 -0.966657 -2.364037 7.202198 11.312678 -67.402048 5.016177 0.619727 96.100181 0.309547 -12.895607 -22.678643 0.000000 0.000000 0.000000 0.123436 0.712343 -0.628646 6.845775 -14.513114 -71.702315 3.892866 2.992989 86.887506 1.700673 5.070583 -17.751814 0.000000 0.000000 0.000000 -2.736394 3.359089 -3.765790 -1.539447 -1.980608 -0.640684 -0.106609 -2.256624 11.584719 0.062582 -0.003486 0.003953 -0.164642 -1.644539 15.405357 -0.029425 -0.253458 7.132273 0.000000 0.000000 0.000000 1.717559 -1.486010 10.697123 -4.955283 -6.151998 2.919725 -61.864821 -26.402484 34.340996 175.005101 -88.019391 -148.328869 0.000000 0.000000 0.000000 -2.140375 0.396333 10.050763 5.215409 5.761235 -5.381702 23.720021 15.192018 -8.148023 -179.776439 73.576792 179.651993 0.000000 0.000000 0.000000 
-4.463955 60.234959 5.798344 179.839263 7.506512 179.979405 -0.579339 -0.558058 -2.454659 7.265358 11.588068 -67.375704 4.947397 0.659373 96.500628 0.753686 -12.626631 -22.922805 0.000000 0.000000 0.000000 -0.105104 1.109079 -0.715214 7.003604 -14.425515 -71.531424 4.047042 3.154387 86.784875 1.830507 5.340580 -17.747422 0.000000 0.000000 0.000000 -2.759359 3.599421 -3.871261 -1.495286 -2.050082 -0.491849 -0.058444 -2.377614 11.411497 0.000517 -0.052333 -0.020629 -0.176968 -1.704792 15.278974 -0.106470 -0.192317 6.927490 0.000000 0.000000 0.000000 1.697035 -1.482811 10.585667 -4.796267 -5.958760 3.125178 -61.957589 -26.397821 34.164343 172.788363 -88.184149 -146.061068 0.000000 0.000000 0.000000 -2.164767 0.389904 9.896568 5.335068 5.820451 -5.289999 23.025555 16.397210 -9.123632 -179.749665 73.102688 179.434001 0.000000 0.000000 0.000000 
-4.811556 60.222923 5.705024 179.892949 8.274647 179.992888 -0.786429 -0.486987 -2.505589 7.277888 11.812639 -67.342476 4.956086 0.688382 96.880400 1.299989 -12.214101 -23.190727 0.000000 0.000000 0.000000 -0.294858 1.165551 -0.854256 7.200323 -14.513375 -71.338266 4.220773 3.282866 86.603363 2.071624 5.744516 -17.669404 0.000000 0.000000 0.000000 -2.815239 3.552538 -4.000858 -1.485674 -2.078293 -0.313480 -0.033303 -2.449243 11.247018 0.024822 -0.005885 -0.011175 -0.231773 -1.841732 15.124704 -0.173928 -0.102990 6.635967 0.000000 0.000000 0.000000 1.647698 -1.571166 10.446884 -4.663622 -5.688325 3.183157 -62.007715 -26.274170 34.118728 174.753723 -88.324154 -147.965885 0.000000 0.000000 0.000000 -2.239676 0.289384 9.709791 5.403591 5.724113 -5.136084 22.462406 17.192133 -10.518603 -179.450079 72.607793 179.404262 0.000000 0.000000 0.000000 
-5.115416 60.213829 5.599774 179.936744 8.868497 179.993694 -0.935108 -0.620354 -2.514736 7.329738 11.950976 -67.285532 4.948363 0.686302 97.300478 1.821704 -11.803431 -23.454706 0.000000 0.000000 0.000000 -0.447633 1.014646 -0.987181 7.402272 -14.662347 -71.120041 4.370507 3.349087 86.429507 2.333398 6.159543 -17.560013 0.000000 0.000000 0.000000 -2.863816 3.378339 -4.080929 -1.540933 -2.018049 -0.141531 -0.099889 -2.513028 11.078123 -0.004435 -0.019103 0.024992 -0.199702 -1.886428 14.884423 -0.322138 0.061090 6.245097 0.000000 0.000000 0.000000 1.669365 -1.602692 10.275311 -4.517906 -5.459206 3.353825 -62.042419 -26.405557 33.905196 -177.208274 -88.365538 -155.924831 0.000000 0.000000 0.000000 -2.198571 0.174373 9.491867 5.548301 5.660076 -5.013703 22.296528 17.369868 -11.763132 -179.358268 72.114865 179.088626 0.000000 0.000000 0.000000 
-5.340393 60.213783 5.504697 179.877581 9.369517 179.989405 -1.114793 -0.693142 -2.494655 7.374420 12.102182 -67.240330 4.913650 0.726942 97.574505 2.226458 -11.471923 -23.611839 0.000000 0.000000 0.000000 -0.620158 0.930822 -1.113069 7.555198 -14.779092 -70.955461 4.487416 3.415866 86.284837 2.505811 6.464269 -17.551807 0.000000 0.000000 0.000000 -3.075638 3.290196 -4.079406 -1.629753 -1.906510 -0.026784 -0.130928 -2.568334 10.835105 0.000495 -0.012307 -0.016326 -0.233693 -1.971724 14.732184 -0.484062 0.227202 5.721652 0.000000 0.000000 0.000000 1.648220 -1.763972 10.128991 -4.417965 -5.079787 3.515163 -62.009163 -26.480681 33.830992 -176.858282 -88.421696 -156.181032 0.000000 0.000000 0.000000 -2.209155 0.113048 9.357381 5.796630 5.683708 -4.700026 22.478525 17.095590 -12.720947 -179.116001 71.579727 178.886616 0.000000 0.000000 0.000000 
-5.435620 60.207176 5.445917 179.977370 9.557733 179.994896 -1.204957 -0.753891 -2.479832 7.503195 12.195488 -67.235385 4.806106 0.712578 97.758988 2.461609 -11.300500 -23.730589 0.000000 0.000000 0.000000 -0.670638 0.875568 -1.191903 7.716404 -14.900664 -70.798681 4.538644 3.439224 86.202704 2.531099 6.602299 -17.648755 0.000000 0.000000 0.000000 -3.217805 3.255880 -4.010530 -1.627448 -1.770142 0.068589 -0.162954 -2.645329 10.617929 -0.008653 0.005386 -0.011274 -0.342668 -2.091839 14.507834 -0.700581 0.450052 5.127903 0.000000 0.000000 0.000000 1.532321 -1.880772 10.006379 -4.310538 -4.782306 3.856627 -61.785516 -26.635151 33.688180 -173.059618 -88.478899 -159.888513 0.000000 0.000000 0.000000 -2.309673 0.009975 9.212468 6.158344 5.763031 -4.299952 22.944713 16.892798 -13.356015 -178.616291 71.245703 178.916273 0.000000 0.000000 0.000000 
-5.447168 60.189175 5.428389 179.904014 9.594508 179.989732 -1.322016 -0.843754 -2.480390 7.600833 12.291344 -67.228104 4.702283 0.763049 97.852507 2.551901 -11.214512 -23.781327 0.000000 0.000000 0.000000 -0.767606 0.810017 -1.325092 7.787443 -14.957768 -70.677131 4.560767 3.469557 86.207048 2.511078 6.691658 -17.755908 0.000000 0.000000 0.000000 -3.436215 3.058323 -3.960895 -1.658624 -1.483466 0.176442 -0.264884 -2.720541 10.408139 0.004158 -0.003943 0.002317 -0.426653 -2.124952 14.274756 -0.939302 0.660400 4.473844 0.000000 0.000000 0.000000 1.458695 -1.939720 9.838964 -4.099606 -4.440638 4.052314 -61.586190 -26.861097 33.602642 -169.362300 -88.579214 -163.503186 0.000000 0.000000 0.000000 -2.354581 -0.074201 9.084053 6.419954 6.058476 -4.021395 23.550057 16.991083 -13.890444 -178.289521 71.140088 178.744070 0.000000 0.000000 0.000000 
-5.448993 60.161209 5.467425 179.988312 9.371928 179.981523 -1.356462 -1.093271 -2.540151 7.718570 12.367319 -67.216062 4.601790 0.784316 97.905762 2.547818 -11.169556 -23.759255 0.000000 0.000000 0.000000 -0.750036 0.582985 -1.473424 7.821761 -15.005314 -70.528574 4.551971 3.471874 86.217212 2.437769 6.711865 -17.780147 0.000000 0.000000 0.000000 -3.502849 2.955996 -3.921697 -1.584187 -1.394476 0.332495 -0.372172 -2.843714 10.210378 -0.003789 -0.000434 -0.007918 -0.592649 -2.226260 14.009396 -1.220815 0.917632 3.767579 0.000000 0.000000 0.000000 1.313586 -2.071575 9.670044 -3.937242 -4.039537 4.207500 -61.345952 -27.089399 33.558946 -164.031200 -88.682999 -168.782621 0.000000 0.000000 0.000000 -2.498530 -0.140249 8.951553 6.675030 6.471071 -3.817035 24.076992 17.551515 -14.542289 -177.938832 71.262184 178.579421 0.000000 0.000000 0.000000 
-5.428514 60.123463 5.569273 179.901391 9.038611 179.868865 -1.411512 -1.380519 -2.611351 7.747273 12.462900 -67.188011 4.543501 0.861997 97.887054 2.461086 -11.193672 -23.638410 0.000000 0.000000 0.000000 -0.768260 0.306720 -1.632597 7.746833 -15.011407 -70.363461 4.527684 3.496242 86.282583 2.346151 6.693612 -17.752100 0.000000 0.000000 0.000000 -3.601630 2.667900 -3.847434 -1.536034 -1.141907 0.524923 -0.518288 -2.923249 10.027747 -0.017895 0.003550 0.005644 -0.684044 -2.247630 13.707377 -1.445393 1.089946 3.074149 0.000000 0.000000 0.000000 1.219109 -1.998204 9.544546 -3.766348 -3.932795 4.446241 -60.976527 -27.571182 33.365761 -159.176138 -88.716712 -173.628299 0.000000 0.000000 0.000000 -2.603579 -0.217691 8.733622 6.937523 6.935565 -3.354882 24.228050 18.634245 -15.383126 -177.330426 71.393297 178.689333 0.000000 0.000000 0.000000 
-5.394877 60.096783 5.696508 179.946852 8.510000 179.976086 -1.437514 -1.655698 -2.733910 7.772415 12.637139 -67.377781 4.488669 0.921428 97.802216 2.300659 -11.320183 -23.409614 0.000000 0.000000 0.000000 -0.725807 0.122287 -1.811872 7.632950 -14.945581 -70.358147 4.462311 3.516426 86.319856 2.179575 6.545202 -17.781614 0.000000 0.000000 0.000000 -3.610701 2.455675 -3.814283 -1.407961 -0.915858 0.593355 -0.603040 -3.020095 9.818767 0.015096 0.020864 0.007270 -0.892549 -2.607994 13.531435 -1.696095 1.320530 2.432874 0.000000 0.000000 0.000000 1.044733 -2.230985 9.407926 -3.643558 -3.653891 4.684792 -60.627751 -27.971686 33.190164 -155.391093 -88.713816 -177.434463 0.000000 0.000000 0.000000 -2.787333 -0.390811 8.577034 7.086650 7.304472 -3.070814 24.380529 19.956542 -16.146620 -177.186541 71.393543 178.369789 0.000000 0.000000 0.000000 
-5.319662 60.090637 5.867059 -179.996849 7.911191 -179.965253 -1.471638 -1.656587 -2.899045 7.728199 12.794705 -67.465262 4.440686 0.976050 97.584736 2.134006 -11.569456 -23.077205 0.000000 0.000000 0.000000 -0.681221 0.179833 -1.911503 7.485476 -14.903252 -70.350457 4.381560 3.577303 86.300649 2.011573 6.347945 -17.752575 0.000000 0.000000 0.000000 -3.643237 2.476121 -3.649595 -1.259741 -0.693854 0.632665 -0.708820 -3.034032 9.616448 0.022367 -0.072759 0.021411 -1.021225 -2.626965 13.302966 -1.867487 1.427278 1.821453 0.000000 0.000000 0.000000 0.931843 -2.395808 9.270023 -3.540614 -3.497216 4.930499 -60.321697 -28.352535 33.061124 -154.853530 -88.650268 -178.023703 0.000000 0.000000 0.000000 -2.928844 -0.546400 8.367412 7.246801 7.520180 -2.822254 24.556060 21.320260 -16.664065 -176.597328 71.010635 178.541705 0.000000 0.000000 0.000000 
